<svg width="60" height="60" viewBox="0 0 60 60" fill="none" xmlns="http://www.w3.org/2000/svg">
<rect width="60" height="60" rx="30" fill="#0A3141"/>
<rect width="60" height="60" rx="30" fill="black" fill-opacity="0.2"/>
<path d="M24.5776 33.4816C23.1628 34.324 19.4534 36.0441 21.7127 38.1966C22.8163 39.248 24.0455 40 25.5909 40H34.4091C35.9545 40 37.1837 39.248 38.2873 38.1966C40.5466 36.0441 36.8372 34.324 35.4224 33.4816C32.1048 31.5061 27.8952 31.5061 24.5776 33.4816Z" stroke="white" stroke-width="1.5" stroke-linecap="round" stroke-linejoin="round"/>
<path d="M34.5 24.5C34.5 26.9853 32.4853 29 30 29C27.5147 29 25.5 26.9853 25.5 24.5C25.5 22.0147 27.5147 20 30 20C32.4853 20 34.5 22.0147 34.5 24.5Z" stroke="white" stroke-width="1.5"/>
</svg>
