<svg width="24" height="25" viewBox="0 0 24 25" fill="none" xmlns="http://www.w3.org/2000/svg">
<g id="zap 1">
<path id="Vector" d="M16.0173 2.82514C16.5421 2.90348 17.1135 3.09299 17.4411 3.66038C17.7678 4.22637 17.6484 4.81617 17.4563 5.31136C17.2715 5.7879 16.9438 6.36433 16.5621 7.03565L15.4611 8.97252C15.2529 9.3388 15.1188 9.57576 15.0334 9.75737C14.9693 9.89366 14.9576 9.9495 14.9557 9.95874C14.9589 10.0698 15.0176 10.1701 15.1089 10.2266C15.1188 10.2298 15.1729 10.2465 15.318 10.2578C15.5167 10.2734 15.8182 10.2739 16.238 10.2739C16.7268 10.2739 17.1369 10.2739 17.4567 10.2984C17.766 10.3221 18.1302 10.3746 18.4355 10.5776C19.0284 10.9716 19.3367 11.6749 19.2285 12.3773C19.1729 12.7386 18.9678 13.0434 18.7773 13.2893C18.5803 13.5435 18.3046 13.8484 17.9756 14.2121L12.384 20.3952C11.8711 20.9625 11.4393 21.44 11.088 21.7463C10.9093 21.902 10.6983 22.0621 10.4628 22.1576C10.2035 22.2629 9.86127 22.3076 9.52137 22.1305C9.18223 21.9538 9.02287 21.6486 8.95948 21.3774C8.90175 21.1304 8.91012 20.8659 8.93375 20.6296C8.98022 20.1648 9.11946 19.535 9.28499 18.7864L9.98325 15.6277C10.1218 15.0012 10.2063 14.6103 10.2279 14.3242C10.2576 14.0884 10.0519 13.9872 9.94529 13.9662C9.66378 13.9254 9.26688 13.9236 8.62804 13.9236H8.11198C7.41908 13.9236 6.81593 13.9237 6.34985 13.8543C5.85677 13.7808 5.32891 13.6044 4.99741 13.0916C4.66669 12.5801 4.72072 12.0262 4.85366 11.5454C4.97963 11.0899 5.22437 10.5364 5.50605 9.89944L7.35631 5.71448C7.61688 5.12508 7.83598 4.62946 8.05945 4.24142C8.29628 3.83017 8.56991 3.48046 8.96967 3.21931C9.3697 2.95798 9.79951 2.84835 10.2706 2.7977C10.7146 2.74997 11.2546 2.74998 11.8958 2.75H14.0836C14.8522 2.74995 15.5133 2.74991 16.0173 2.82514Z" fill="#2CB4C2"/>
</g>
</svg>
