<svg width="45" height="56" viewBox="0 0 45 56" fill="none" xmlns="http://www.w3.org/2000/svg">
<path d="M45 22.5C45 34.9264 22.5 56 22.5 56C22.5 56 0 34.9264 0 22.5C0 10.0736 10.0736 0 22.5 0C34.9264 0 45 10.0736 45 22.5Z" fill="#2CB4C2"/>
<path d="M22.5233 8.00195L20.114 10.4494L22.5274 12.8928L24.9365 10.4452L22.5233 8.00195Z" fill="white"/>
<path d="M14.6939 11.3135L12.2949 13.7363L14.6939 16.1893L17.1226 13.7363L14.6939 11.3135Z" fill="white"/>
<path d="M11.4586 19.2217L9.04932 21.6692L11.4626 24.1125L13.8719 21.6651L11.4586 19.2217Z" fill="white"/>
<path d="M14.6939 27.1572L12.2949 29.6002L14.6939 32.0431L17.1226 29.6002L14.6939 27.1572Z" fill="white"/>
<path d="M22.5256 35.3312L24.9345 32.8883L22.5256 30.4453L20.1167 32.8883L22.5256 35.3312Z" fill="white"/>
<path d="M30.3424 27.1572L27.9331 29.6047L30.3465 32.0479L32.7556 29.6005L30.3424 27.1572Z" fill="white"/>
<path d="M33.5885 19.2217L31.1772 21.6671L33.5885 24.1124L35.9998 21.6671L33.5885 19.2217Z" fill="white"/>
<path d="M30.3461 11.291L27.9348 13.7364L30.3461 16.1817L32.7574 13.7364L30.3461 11.291Z" fill="white"/>
<path d="M22.4755 8L20.0649 10.4464L22.4773 12.8911L24.8879 10.4447L22.4755 8Z" fill="white"/>
<path d="M14.6473 11.2939L12.2363 13.7396L14.6479 16.1847L17.0589 13.739L14.6473 11.2939Z" fill="white"/>
<path d="M11.4103 19.2197L9 21.6662L11.4123 24.1105L13.8226 21.6641L11.4103 19.2197Z" fill="white"/>
<path d="M14.6428 27.1611L12.2322 29.6072L14.6441 32.0518L17.0547 29.6058L14.6428 27.1611Z" fill="white"/>
<path d="M22.476 35.3312L24.8849 32.8883L22.476 30.4453L20.0671 32.8883L22.476 35.3312Z" fill="white"/>
<path d="M30.2944 27.1543L27.8838 29.6004L30.2958 32.045L32.7064 29.5989L30.2944 27.1543Z" fill="white"/>
<path d="M33.5378 19.2236L31.1272 21.6697L33.5391 24.1144L35.9497 21.6684L33.5378 19.2236Z" fill="white"/>
<path d="M30.2977 11.2881L27.8867 13.7338L30.2984 16.1788L32.7093 13.7331L30.2977 11.2881Z" fill="white"/>
<path d="M22.4731 30.4395L20.0625 32.8855L22.4744 35.3302L24.885 32.8841L22.4731 30.4395Z" fill="white"/>
</svg>
