<svg width="30" height="28" viewBox="0 0 30 28" fill="none" xmlns="http://www.w3.org/2000/svg">
<path d="M29.2264 2.39278C29.9993 3.80605 29.4801 5.57833 28.067 6.35122C24.0671 8.53854 20.311 13.1177 17.4427 17.5093C16.0448 19.6502 14.923 21.6437 14.1516 23.1012C13.7666 23.8283 13.4708 24.4186 13.2734 24.8223L12.9867 25.4214C12.536 26.4063 11.5765 27.0614 10.495 27.1212C9.41316 27.1807 8.38728 26.6359 7.8311 25.706C6.92483 24.1908 5.48479 22.8078 4.15024 21.7528C3.50177 21.24 2.91809 20.8358 2.50156 20.5631L1.88821 20.1795C0.489702 19.381 0.00273497 17.6003 0.800589 16.2015C1.59862 14.8021 3.37989 14.3147 4.77913 15.1127L5.69799 15.6835C6.22938 16.0315 6.9582 16.5366 7.7681 17.1768C8.38702 17.6663 9.07902 18.2545 9.77774 18.9324C10.5267 17.5866 11.463 15.9979 12.5588 14.3197C15.5242 9.77929 19.9345 4.15001 25.2682 1.23323C26.6813 0.460309 28.4535 0.979476 29.2264 2.39278Z" fill="white"/>
</svg>
