<svg width="23" height="24" viewBox="0 0 23 24" fill="none" xmlns="http://www.w3.org/2000/svg">
<g id="quote-up 1">
<path id="Vector" d="M17.3011 11.2813C18.1622 11.2813 18.8802 11.2812 19.4502 11.3578C20.0518 11.4387 20.595 11.6167 21.0314 12.0532C21.468 12.4896 21.6459 13.0328 21.7268 13.6344C21.8035 14.2045 21.8034 14.9224 21.8034 15.7835V15.8832C21.8034 16.7442 21.8035 17.4622 21.7268 18.0322C21.6459 18.6339 21.468 19.1771 21.0314 19.6135C20.595 20.05 20.0518 20.228 19.4502 20.3088C18.8802 20.3855 18.1622 20.3854 17.3011 20.3854H17.2015C16.3404 20.3854 15.6224 20.3855 15.0524 20.3088C14.4508 20.228 13.9076 20.05 13.4712 19.6135C13.0346 19.1771 12.8567 18.6339 12.7758 18.0322C12.6991 17.4622 12.6992 16.7442 12.6992 15.8832V15.7835C12.6992 14.9224 12.6991 14.2045 12.7758 13.6344C12.8567 13.0328 13.0346 12.4896 13.4712 12.0532C13.9076 11.6167 14.4508 11.4387 15.0524 11.3578C15.6224 11.2812 16.3404 11.2813 17.2015 11.2813H17.3011Z" fill="#2CB4C2"/>
<path id="Vector_2" fill-rule="evenodd" clip-rule="evenodd" d="M20.3225 4.28772C20.4799 4.79302 20.198 5.33031 19.6927 5.48778C16.7145 6.4159 14.6159 9.05313 14.6159 12.1079V16.0729C14.6159 16.6022 14.1868 17.0312 13.6576 17.0312C13.1283 17.0312 12.6992 16.6022 12.6992 16.0729V12.1079C12.6992 8.13431 15.4224 4.81099 19.1224 3.65791C19.6277 3.50044 20.165 3.78242 20.3225 4.28772Z" fill="#2CB4C2"/>
<path id="Vector_3" d="M5.80117 11.2813C6.6622 11.2813 7.38019 11.2812 7.95018 11.3578C8.55182 11.4387 9.095 11.6167 9.5315 12.0532C9.96797 12.4896 10.1459 13.0328 10.2268 13.6344C10.3035 14.2045 10.3034 14.9224 10.3034 15.7835V15.8832C10.3034 16.7442 10.3035 17.4622 10.2268 18.0322C10.1459 18.6339 9.96797 19.1771 9.5315 19.6135C9.095 20.05 8.55182 20.228 7.95018 20.3088C7.38019 20.3855 6.6622 20.3854 5.80117 20.3854H5.70148C4.84045 20.3854 4.12242 20.3855 3.55243 20.3088C2.95079 20.228 2.40761 20.05 1.97112 19.6135C1.53463 19.1771 1.35669 18.6339 1.2758 18.0322C1.19917 17.4622 1.19919 16.7442 1.19922 15.8832V15.7835C1.19919 14.9224 1.19917 14.2045 1.2758 13.6344C1.35669 13.0328 1.53463 12.4896 1.97112 12.0532C2.40761 11.6167 2.95079 11.4387 3.55243 11.3578C4.12242 11.2812 4.84042 11.2813 5.70144 11.2813H5.80117Z" fill="#2CB4C2"/>
<path id="Vector_4" fill-rule="evenodd" clip-rule="evenodd" d="M8.82248 4.28772C8.97996 4.79302 8.69799 5.33031 8.19269 5.48778C5.2145 6.4159 3.11589 9.05313 3.11589 12.1079V16.0729C3.11589 16.6022 2.68682 17.0312 2.15755 17.0312C1.62828 17.0312 1.19922 16.6022 1.19922 16.0729V12.1079C1.19922 8.13431 3.92238 4.81099 7.62242 3.65791C8.12773 3.50044 8.66501 3.78242 8.82248 4.28772Z" fill="#2CB4C2"/>
</g>
</svg>
