<svg width="170" height="44" viewBox="0 0 170 44" fill="none" xmlns="http://www.w3.org/2000/svg">
<path d="M80.1641 29.4848H74.4238V23.0301H66.7803V29.4848H61.04V13.3328H66.7803V19.7877H74.4238V13.3328H80.1641V29.4848Z" fill="#0A3141"/>
<path d="M118.382 29.4848H112.642V16.5603H105.638V13.3328H124.762V16.5603H118.397V29.4848H118.382Z" fill="#0A3141"/>
<path d="M146.429 29.4848H128.584V13.3328H146.429V16.5603H134.324V19.7877H143.886V23.015H134.324V26.2424H146.429V29.4848Z" fill="#0A3141"/>
<path d="M150.251 13.3328H163.456C165.687 13.3328 167.397 13.7552 168.408 14.479C169.419 15.203 170 16.4245 170 18.0081V20.2854C170 21.8689 169.419 23.1055 168.408 23.8295C167.397 24.5533 165.687 24.9757 163.456 24.9757H155.977V29.5H150.235V13.3328H150.251ZM164.26 18.0081C164.26 17.1032 163.456 16.5753 162.162 16.5753H155.977V21.7482H162.162C163.441 21.7482 164.26 21.2053 164.26 20.2854V18.0081Z" fill="#0A3141"/>
<path d="M100.388 14.479C99.3772 13.7552 97.8454 13.3328 95.5999 13.3328H84.6104V16.5603H94.321C95.5999 16.5603 96.0758 17.0881 96.0758 17.993V19.7877H87.7927V23.015H96.0758V24.9002C96.0758 25.8051 95.5999 26.348 94.321 26.348H84.6104V29.5753H95.5999C97.8306 29.5753 99.3772 29.1531 100.388 28.4292C101.4 27.7053 101.816 26.4838 101.816 24.9002V17.993C101.816 16.4245 101.4 15.203 100.388 14.479Z" fill="#0A3141"/>
<path d="M21.2861 1.50394L17.6719 5.17541L21.2922 8.84079L24.9063 5.16917L21.2861 1.50394Z" fill="#2CB4C2"/>
<path d="M9.54214 6.47088L5.94336 10.1055L9.54214 13.7852L13.1855 10.1055L9.54214 6.47088Z" fill="#2CB4C2"/>
<path d="M4.6884 18.3336L1.07422 22.0052L4.69453 25.6705L8.30871 21.999L4.6884 18.3336Z" fill="#2CB4C2"/>
<path d="M9.54214 30.239L5.94336 33.9038L9.54214 37.5685L13.1855 33.9038L9.54214 30.239Z" fill="#2CB4C2"/>
<path d="M21.2894 42.5L24.9031 38.8354L21.2894 35.1706L17.6758 38.8354L21.2894 42.5Z" fill="#2CB4C2"/>
<path d="M33.0166 30.2386L29.4023 33.9101L33.0227 37.5753L36.6368 33.9038L33.0166 30.2386Z" fill="#2CB4C2"/>
<path d="M37.8858 18.3352L34.2686 22.0036L37.8858 25.6719L41.503 22.0036L37.8858 18.3352Z" fill="#2CB4C2"/>
<path d="M33.0215 6.43792L29.4043 10.1063L33.0215 13.7746L36.6387 10.1063L33.0215 6.43792Z" fill="#2CB4C2"/>
<path d="M21.2148 1.5L17.5986 5.16989L21.2174 8.8373L24.8336 5.16742L21.2148 1.5Z" fill="#2CB4C2" stroke="#2CB4C2" stroke-miterlimit="10" stroke-linecap="round"/>
<path d="M9.47122 6.44111L5.85449 10.11L9.47223 13.7778L13.089 10.109L9.47122 6.44111Z" fill="#2CB4C2" stroke="#2CB4C2" stroke-miterlimit="10" stroke-linecap="round"/>
<path d="M4.6157 18.3313L1 22.0013L4.61877 25.6681L8.23448 21.9981L4.6157 18.3313Z" fill="#2CB4C2" stroke="#2CB4C2" stroke-miterlimit="10" stroke-linecap="round"/>
<path d="M9.46485 30.2428L5.84863 33.9123L9.4669 37.5795L13.0831 33.9101L9.46485 30.2428Z" fill="#2CB4C2" stroke="#2CB4C2" stroke-miterlimit="10" stroke-linecap="round"/>
<path d="M21.2152 42.5L24.8289 38.8354L21.2152 35.1706L17.6016 38.8354L21.2152 42.5Z" fill="#2CB4C2" stroke="#2CB4C2" stroke-miterlimit="10" stroke-linecap="round"/>
<path d="M32.9443 30.2332L29.3281 33.9027L32.9465 37.5699L36.5627 33.9005L32.9443 30.2332Z" fill="#2CB4C2" stroke="#2CB4C2" stroke-miterlimit="10" stroke-linecap="round"/>
<path d="M37.8096 18.3362L34.1934 22.0057L37.8116 25.6731L41.4278 22.0036L37.8096 18.3362Z" fill="#2CB4C2" stroke="#2CB4C2" stroke-miterlimit="10" stroke-linecap="round"/>
<path d="M32.9498 6.43298L29.333 10.1018L32.9508 13.7697L36.5674 10.1008L32.9498 6.43298Z" fill="#2CB4C2" stroke="#2CB4C2" stroke-miterlimit="10" stroke-linecap="round"/>
<path d="M21.2109 35.1629L17.5947 38.8323L21.2129 42.4996L24.8292 38.8301L21.2109 35.1629Z" fill="#2CB4C2" stroke="#2CB4C2" stroke-miterlimit="10" stroke-linecap="round"/>
</svg>
