<svg width="170" height="44" viewBox="0 0 170 44" fill="none" xmlns="http://www.w3.org/2000/svg">
<path d="M80.1643 29.4848H74.4241V23.0301H66.7805V29.4848H61.0403V13.3328H66.7805V19.7877H74.4241V13.3328H80.1643V29.4848Z" fill="white"/>
<path d="M118.383 29.4848H112.642V16.5603H105.638V13.3328H124.762V16.5603H118.397V29.4848H118.383Z" fill="white"/>
<path d="M146.429 29.4848H128.584V13.3328H146.429V16.5603H134.324V19.7877H143.886V23.015H134.324V26.2424H146.429V29.4848Z" fill="white"/>
<path d="M150.251 13.3328H163.457C165.687 13.3328 167.397 13.7552 168.409 14.479C169.419 15.203 170 16.4245 170 18.0081V20.2854C170 21.8689 169.419 23.1055 168.409 23.8295C167.397 24.5533 165.687 24.9757 163.457 24.9757H155.977V29.5H150.236V13.3328H150.251ZM164.26 18.0081C164.26 17.1032 163.457 16.5753 162.162 16.5753H155.977V21.7482H162.162C163.441 21.7482 164.26 21.2053 164.26 20.2854V18.0081Z" fill="white"/>
<path d="M100.389 14.479C99.3775 13.7552 97.8458 13.3328 95.6002 13.3328H84.6107V16.5603H94.3214C95.6002 16.5603 96.0762 17.0881 96.0762 17.993V19.7877H87.7931V23.015H96.0762V24.9002C96.0762 25.8051 95.6002 26.348 94.3214 26.348H84.6107V29.5753H95.6002C97.831 29.5753 99.3775 29.1531 100.389 28.4292C101.4 27.7053 101.816 26.4838 101.816 24.9002V17.993C101.816 16.4245 101.4 15.203 100.389 14.479Z" fill="white"/>
<path d="M21.2865 1.50394L17.6722 5.17541L21.2926 8.84079L24.9067 5.16917L21.2865 1.50394Z" fill="#2CB4C2"/>
<path d="M9.54177 6.47088L5.94299 10.1055L9.54177 13.7852L13.1851 10.1055L9.54177 6.47088Z" fill="#2CB4C2"/>
<path d="M4.68803 18.3336L1.07385 22.0052L4.69417 25.6705L8.30834 21.999L4.68803 18.3336Z" fill="#2CB4C2"/>
<path d="M9.54177 30.239L5.94299 33.9038L9.54177 37.5685L13.1851 33.9038L9.54177 30.239Z" fill="#2CB4C2"/>
<path d="M21.2898 42.5L24.9034 38.8354L21.2898 35.1706L17.6761 38.8354L21.2898 42.5Z" fill="#2CB4C2"/>
<path d="M33.0161 30.2386L29.4019 33.9101L33.0222 37.5753L36.6363 33.9038L33.0161 30.2386Z" fill="#2CB4C2"/>
<path d="M37.8863 18.3352L34.269 22.0036L37.8863 25.6719L41.5035 22.0036L37.8863 18.3352Z" fill="#2CB4C2"/>
<path d="M33.022 6.43792L29.4048 10.1063L33.022 13.7746L36.6392 10.1063L33.022 6.43792Z" fill="#2CB4C2"/>
<path d="M21.2153 1.5L17.5991 5.16989L21.2179 8.8373L24.8341 5.16742L21.2153 1.5Z" fill="#2CB4C2" stroke="#2CB4C2" stroke-miterlimit="10" stroke-linecap="round"/>
<path d="M9.47159 6.44111L5.85486 10.11L9.4726 13.7778L13.0893 10.109L9.47159 6.44111Z" fill="#2CB4C2" stroke="#2CB4C2" stroke-miterlimit="10" stroke-linecap="round"/>
<path d="M4.6157 18.3313L1 22.0013L4.61877 25.6681L8.23448 21.9981L4.6157 18.3313Z" fill="#2CB4C2" stroke="#2CB4C2" stroke-miterlimit="10" stroke-linecap="round"/>
<path d="M9.46485 30.2428L5.84863 33.9123L9.4669 37.5795L13.0831 33.9101L9.46485 30.2428Z" fill="#2CB4C2" stroke="#2CB4C2" stroke-miterlimit="10" stroke-linecap="round"/>
<path d="M21.2156 42.5L24.8292 38.8354L21.2156 35.1706L17.6019 38.8354L21.2156 42.5Z" fill="#2CB4C2" stroke="#2CB4C2" stroke-miterlimit="10" stroke-linecap="round"/>
<path d="M32.9442 30.2332L29.328 33.9027L32.9464 37.5699L36.5626 33.9005L32.9442 30.2332Z" fill="#2CB4C2" stroke="#2CB4C2" stroke-miterlimit="10" stroke-linecap="round"/>
<path d="M37.8101 18.3362L34.1938 22.0057L37.8121 25.6731L41.4283 22.0036L37.8101 18.3362Z" fill="#2CB4C2" stroke="#2CB4C2" stroke-miterlimit="10" stroke-linecap="round"/>
<path d="M32.9493 6.43298L29.3325 10.1018L32.9503 13.7697L36.5669 10.1008L32.9493 6.43298Z" fill="#2CB4C2" stroke="#2CB4C2" stroke-miterlimit="10" stroke-linecap="round"/>
<path d="M21.2112 35.1629L17.595 38.8323L21.2132 42.4996L24.8294 38.8301L21.2112 35.1629Z" fill="#2CB4C2" stroke="#2CB4C2" stroke-miterlimit="10" stroke-linecap="round"/>
</svg>
